<svg width="256" height="256" viewBox="0 0 256 256" fill="none" xmlns="http://www.w3.org/2000/svg">
<path d="M202.01 106.952C206.111 103.886 210.451 101.089 214.63 98.1201L220.705 93.7881C221.79 93.0051 222.848 92.1266 223.989 91.4316V125.316C223.757 124.041 223.971 122.433 223.975 121.123L224.008 110.629C224.016 107.353 224.211 98.4856 223.509 96.5746C223.354 96.1521 221.656 93.8436 221.197 93.8871C219.54 94.0441 204.353 106.825 202.01 106.952Z" fill="#CA23F8"/>
<path d="M202.01 106.952C204.353 106.825 219.54 94.0443 221.197 93.8873C221.657 93.8438 223.354 96.1523 223.509 96.5748C224.211 98.4858 224.016 107.353 224.009 110.629L223.976 121.123C223.971 122.433 223.757 124.041 223.989 125.316C224.113 137.117 223.991 148.934 223.989 160.737C220.736 157.202 217.171 153.997 213.768 150.609L201.698 138.75C199.404 136.486 197.167 134.157 194.832 131.934L187.297 124.834C185.671 123.328 183.863 121.87 182.456 120.155C183.759 119.152 185.26 118.31 186.631 117.396L194.487 112.082C196.836 110.499 199.624 108.213 202.01 106.952Z" fill="#890FF2"/>
<path d="M32.1068 91.4316C34.7024 92.7906 40.5632 97.5311 43.2902 99.4321L73.2959 120.155C70.1079 123.134 67.0839 126.262 63.9884 129.335L52.7084 140.458C45.7675 147.287 38.843 154.176 32.1068 161.207C31.9208 158.82 32.1 156.301 32.1022 153.897L32.1068 91.4316Z" fill="#890FF2"/>
<path d="M174.776 126.076C175.664 126.502 181.324 132.315 182.508 133.468L222.741 172.844C220.132 186.238 210.822 190.634 198.626 190.638L62.3124 190.636C54.2894 190.645 47.4104 191.54 40.7502 185.971C36.8657 182.724 34.0135 177.923 33.5439 172.844C35.0522 170.49 39.8738 166.307 42.0538 164.144C53.3679 152.918 64.9599 142.228 76.3104 131.114C78.0184 129.442 79.6669 127.602 81.5039 126.076C90.2819 131.42 103.923 142.493 113.239 144.722C118.042 145.872 123.784 145.413 128.746 145.413C143.25 145.411 144.964 146.197 157.497 137.756L166.288 131.814C169.103 129.873 171.865 127.874 174.776 126.076Z" fill="#890FF2"/>
<path d="M39.5315 71.0956C45.099 66.0166 50.0009 65.6171 57.0564 65.6181L196.027 65.6221C210.328 65.4896 217.764 67.1571 222.741 81.5301C219.758 82.9756 217.084 85.1841 214.358 87.0601L150.716 130.316C140.504 137.001 139.132 135.912 126.718 135.911C111.616 135.911 115.954 136.625 103.101 128.296C92.6929 121.55 82.3559 114.684 72.0794 107.739L41.3196 87.0356C39.0329 85.4886 35.5141 83.3961 33.5439 81.5301C34.6971 77.8751 36.4796 73.5881 39.5315 71.0956Z" fill="url(#paint0_linear_1_646)"/>
<path d="M39.5317 71.0957C45.0992 66.0167 50.0011 65.6172 57.0566 65.6182L196.028 65.6222C194.58 66.5242 189.57 65.4577 187.713 65.6087C187.46 65.6297 181.669 66.7702 181.657 66.7762C180.623 67.3137 173.464 68.0552 172.656 67.8832L172.432 67.4367C171.622 67.4122 170.813 68.7382 169.908 68.8717C168.624 69.0607 167.199 68.3112 165.906 68.2227C162.933 68.0182 159.799 68.1792 156.826 68.4172C156.136 68.4722 155.519 67.9882 154.867 68.0252C153.679 68.0932 152.528 69.0002 151.373 69.2647C149.088 69.7882 147.31 69.8872 144.56 70.5842C143.455 70.8647 138.014 71.7172 136.939 71.7572C136.058 71.7897 135.177 71.3622 134.285 71.3972C132.761 71.4572 131.248 71.9787 129.702 71.8277C127.523 71.6157 124.718 69.9557 122.497 70.2782C115.236 71.3322 110.261 71.6882 102.828 71.8367L97.3581 71.8982C96.1931 71.9077 95.0376 72.1457 93.8736 72.1397C88.2841 72.1117 82.0301 71.5407 76.3886 72.0642C74.0001 72.2857 71.5756 72.9827 69.1906 73.3507C66.8351 73.7142 50.9476 74.3307 49.1217 73.6167C47.189 72.8607 42.624 75.6412 42.1866 72.5807L41.9695 72.3642C40.3333 72.5492 41.7678 71.4412 40.6534 71.0142C40.204 71.2402 39.8234 71.6182 39.5317 71.0957Z" fill="#FB4CC0"/>
<defs>
<linearGradient id="paint0_linear_1_646" x1="127.351" y1="66.9967" x2="130.527" y2="135.816" gradientUnits="userSpaceOnUse">
<stop stop-color="#FF4DD3"/>
<stop offset="1" stop-color="#940CFF"/>
</linearGradient>
</defs>
</svg>
