<svg width="230" height="50" viewBox="0 0 230 50" fill="none" xmlns="http://www.w3.org/2000/svg">
<path d="M0.584 50V3.92H7.688L41.48 44.112V3.92H46.664V50H39.56L5.768 9.808V50H0.584ZM53.578 50V12.88H58.826V50H53.578ZM53.578 5.968V0.719997H58.826V5.968H53.578ZM67.0185 50V0.719997H72.2665V28.816H82.5065L97.0985 12.88H104.011V12.944L87.1785 31.44L103.947 49.936V50H97.0985L82.5065 34.064H72.2665V50H67.0185ZM108.266 50V12.88H113.514V50H108.266ZM108.266 5.968V0.719997H113.514V5.968H108.266ZM129.258 50C127.85 50 126.549 49.6587 125.354 48.976C124.202 48.2507 123.263 47.312 122.538 46.16C121.855 44.9653 121.514 43.664 121.514 42.256V20.624C121.514 19.216 121.855 17.936 122.538 16.784C123.263 15.5893 124.202 14.6507 125.354 13.968C126.549 13.2427 127.85 12.88 129.258 12.88H151.53C152.981 12.88 154.282 13.2427 155.434 13.968C156.629 14.6507 157.567 15.5893 158.25 16.784C158.975 17.936 159.338 19.216 159.338 20.624V34.064H126.762V42.256C126.762 42.9387 126.997 43.536 127.466 44.048C127.978 44.5173 128.575 44.752 129.258 44.752H159.338V50H129.258ZM126.762 28.816H154.026V20.624C154.026 19.9413 153.77 19.3653 153.258 18.896C152.789 18.384 152.213 18.128 151.53 18.128H129.258C128.575 18.128 127.978 18.384 127.466 18.896C126.997 19.3653 126.762 19.9413 126.762 20.624V28.816ZM183.776 50V3.92H220.192C221.6 3.92 222.88 4.26133 224.032 4.944C225.227 5.62666 226.165 6.56533 226.848 7.76C227.531 8.912 227.872 10.192 227.872 11.6V21.392C227.872 21.9893 227.787 22.5867 227.616 23.184C227.488 23.7387 227.296 24.272 227.04 24.784C227.979 26.192 228.683 27.408 229.152 28.432C229.621 29.456 229.856 30.5013 229.856 31.568V42.32C229.856 43.728 229.515 45.0293 228.832 46.224C228.149 47.376 227.211 48.2933 226.016 48.976C224.864 49.6587 223.584 50 222.176 50H183.776ZM191.456 44.816H222.176C222.859 44.816 223.435 44.5813 223.904 44.112C224.416 43.6 224.672 43.0027 224.672 42.32V31.568C224.672 30.8853 224.416 30.3093 223.904 29.84C223.435 29.328 222.859 29.072 222.176 29.072H191.456C190.773 29.072 190.176 29.328 189.664 29.84C189.195 30.3093 188.96 30.8853 188.96 31.568V42.32C188.96 43.0027 189.195 43.6 189.664 44.112C190.176 44.5813 190.773 44.816 191.456 44.816ZM191.456 23.888H220.192C220.875 23.888 221.451 23.6533 221.92 23.184C222.389 22.672 222.624 22.0747 222.624 21.392V11.6C222.624 10.9173 222.389 10.3413 221.92 9.872C221.451 9.36 220.875 9.104 220.192 9.104H191.456C190.773 9.104 190.176 9.36 189.664 9.872C189.195 10.3413 188.96 10.9173 188.96 11.6V21.392C188.96 22.0747 189.195 22.672 189.664 23.184C190.176 23.6533 190.773 23.888 191.456 23.888Z" fill="black"/>
</svg>
